<svg width="82" height="30" viewBox="0 0 82 30" fill="none" xmlns="http://www.w3.org/2000/svg">
<path fill-rule="evenodd" clip-rule="evenodd" d="M81.458 11.0851C81.0914 9.91638 80.5812 8.85893 79.8639 7.93664C79.1465 7.01435 78.2698 6.34649 77.2336 5.84559C76.9387 5.68658 76.58 5.52756 76.2771 5.44806C76.2771 5.44806 76.1655 5.38445 76.0619 5.38445C76.0141 5.38445 75.9583 5.38445 75.9025 5.32879C75.8627 5.32879 75.8069 5.32879 75.8069 5.27314L75.0497 5.11412C74.4917 5.01872 73.7744 4.97101 72.9454 5.01872C71.718 5.07437 70.634 5.33675 69.6775 5.78199C68.6413 6.29084 67.7646 7.0064 67.0472 7.86509C66.3299 8.78737 65.8197 9.79712 65.4531 11.0215C65.1024 12.1823 64.943 13.5022 64.943 14.822C64.943 16.1975 65.1024 17.4696 65.4611 18.6384C65.8277 19.8071 66.3936 20.8646 67.0552 21.7392C67.5733 22.3514 68.1312 22.8523 68.8087 23.3134C69.1116 23.5201 69.3666 23.6712 69.6855 23.8223H69.7253C69.7253 23.8223 69.7731 23.8223 69.7731 23.87C69.8073 23.87 69.8232 23.886 69.8379 23.9008C69.8506 23.9136 69.8625 23.9256 69.8847 23.9256C70.4028 24.18 70.9687 24.3232 71.5825 24.4345C73.3758 24.7843 74.9142 24.5378 74.9142 24.5378C75.7351 24.4345 76.5083 24.18 77.2256 23.87C78.3017 23.3611 79.1704 22.6535 79.8958 21.7869C80.6131 20.9282 81.1232 19.8548 81.4899 18.6861C81.8406 17.5173 82 16.2452 82 14.8697C82 13.5022 81.7928 12.2301 81.4819 11.0533L81.458 11.0851ZM69.4464 12.1982C69.6536 11.4032 69.9086 10.632 70.2673 10.0197C70.626 9.41548 71.0883 8.90664 71.5984 8.5568C72.1165 8.19902 72.7302 8.00025 73.3918 8.00025C74.0613 8.00025 74.6272 8.14336 75.1453 8.50115C75.6554 8.85098 76.0619 9.29622 76.4206 9.86868C76.7793 10.4809 77.0423 11.1408 77.2416 11.9518C77.4568 12.7628 77.5604 13.5817 77.5604 14.496V14.7981C77.5604 15.7125 77.4568 16.6268 77.3053 17.4378C77.0981 18.2567 76.843 18.9643 76.4844 19.5845C76.1257 20.1888 75.6634 20.642 75.1453 20.9997C74.6352 21.3575 74.0294 21.5086 73.3519 21.5086C72.6824 21.5086 72.0766 21.3496 71.5586 20.9997C71.0405 20.642 70.5782 20.1888 70.2195 19.5686C69.8529 18.9643 69.5978 18.2567 69.3906 17.4378C69.1913 16.6268 69.1355 15.7125 69.1355 14.7981C69.1913 13.9236 69.2949 13.0172 69.4543 12.2062L69.4464 12.1982ZM58.1999 24.7127L56.2072 26.9946L56 27.2013L56.2072 30H59.2839L62.5199 26.3904V14.9095L62.4243 14.0349L58.1999 16.2134V24.7127Z" fill="white"/>
<path fill-rule="evenodd" clip-rule="evenodd" d="M32.2789 4.22177L30.2657 2.00409L30 1.81535L30.2657 0L33.366 0.0471846L36.6435 2.61749V14.2328L36.5469 14.8776L32.2789 12.6757V4.22177ZM60.8499 7.34382C61.5747 8.25606 62.09 9.30198 62.4605 10.458L62.4766 10.4265C62.8389 11.5904 63 12.8487 63 14.2013C63 15.5618 62.8389 16.8201 62.4846 17.9761C62.1142 19.1321 61.5988 20.1938 60.8741 21.0431C60.1493 21.9003 59.2635 22.6002 58.1764 23.1035C57.4517 23.4102 56.6706 23.6618 55.8411 23.7641C55.8411 23.7641 54.287 24.0079 52.4751 23.6618C51.855 23.5518 51.2833 23.4102 50.7679 23.1585C50.7387 23.1585 50.7246 23.1437 50.7111 23.1294C50.6985 23.1162 50.6865 23.1035 50.6632 23.1035C50.6632 23.0563 50.6069 23.0563 50.6069 23.0563H50.5666C50.2445 22.9069 49.9868 22.7575 49.6808 22.553C49.0044 22.0969 48.4327 21.6014 47.9092 20.9959C47.2409 20.1309 46.6691 19.0849 46.2987 17.9289C45.9444 16.7729 45.7833 15.5146 45.7833 14.1541C45.7833 12.8487 45.9363 11.5433 46.2906 10.3951C46.6611 9.18402 47.1764 8.18528 47.9012 7.27304C48.6259 6.42372 49.5117 5.71595 50.5586 5.21265C51.5249 4.77226 52.6201 4.51274 53.8602 4.45769C54.6977 4.41051 55.4224 4.45769 55.9861 4.55206L56.7511 4.70934C56.7511 4.76439 56.8075 4.76439 56.8477 4.76439C56.9122 4.81944 56.9605 4.81944 57.0088 4.81944C57.1135 4.81944 57.2262 4.88235 57.2262 4.88235C57.5322 4.96099 57.8946 5.11828 58.1925 5.27556C59.2394 5.771 60.1252 6.43158 60.8499 7.34382ZM51.2028 9.40421C50.8404 10.0098 50.5827 10.7726 50.3814 11.559L50.3895 11.5668C50.1828 12.3588 50.1252 13.2427 50.0695 14.0975L50.0674 14.1305C50.0674 15.0349 50.1157 15.9393 50.325 16.7414C50.5344 17.5514 50.7921 18.2513 51.1545 18.849C51.5168 19.4624 51.9839 19.9107 52.4993 20.2646C53.0227 20.6106 53.6428 20.7679 54.3272 20.7679C54.9956 20.7679 55.6237 20.6184 56.1391 20.2646C56.6545 19.9107 57.1215 19.4624 57.4758 18.8647C57.8382 18.2513 58.104 17.5514 58.3053 16.7414C58.4663 15.9393 58.5791 15.0349 58.5791 14.1305V13.8317C58.5791 12.9273 58.4663 12.1173 58.257 11.3152C58.0476 10.5131 57.7899 9.86033 57.4275 9.2548C57.0652 8.68858 56.6464 8.24819 56.1391 7.90217C55.6157 7.54828 55.0439 7.40673 54.3675 7.40673C53.683 7.40673 53.071 7.60333 52.5556 7.95722C52.0322 8.30324 51.5652 8.80654 51.2028 9.40421ZM38.9627 4.53633H43.3111V24H38.9627V4.53633Z" fill="white"/>
<path fill-rule="evenodd" clip-rule="evenodd" d="M41.0067 1.25542e-06C39.9064 1.25542e-06 39.0134 0.898127 39.0134 2.00475C39.0134 3.1675 39.9064 4.0576 41.0067 4.00949C42.107 4.00949 43 3.11136 43 2.00475C43 0.898127 42.107 1.25542e-06 41.0067 1.25542e-06ZM14.926 8.17133C15.6436 9.10153 16.1539 10.1681 16.5207 11.3468L16.5366 11.3148C16.8954 12.5016 17.0549 13.7846 17.0549 15.1639C17.0549 16.5512 16.8954 17.8342 16.5446 19.013C16.1778 20.1918 15.6675 21.2743 14.9499 22.1404C14.2323 23.0145 13.3553 23.7281 12.2789 24.2414C11.5613 24.5541 10.7879 24.8107 9.96662 24.915C9.96662 24.915 8.42778 25.1635 6.63378 24.8107C6.01984 24.6984 5.45374 24.5541 4.93547 24.2975C4.88763 24.2975 4.88763 24.2975 4.83979 24.2414C4.83979 24.1933 4.78398 24.1933 4.78398 24.1933H4.74411C4.42518 24.0409 4.17004 23.8885 3.86705 23.68C3.19729 23.2149 2.63119 22.7097 2.11292 22.0923C1.39533 21.2102 0.885036 20.1918 0.518264 18.9649C0.159466 17.7861 0 16.503 0 15.1158C0 13.7846 0.159466 12.4535 0.510291 11.2827C0.877063 10.0478 1.38735 9.02936 2.10495 8.09916C2.82255 7.23311 3.69961 6.51141 4.73614 5.99819C5.69293 5.54913 6.7773 5.2845 8.00519 5.22837C8.83441 5.18026 9.55201 5.22837 10.1101 5.3246L10.8676 5.48498C10.8676 5.54111 10.9234 5.54111 10.9633 5.54111C11.0271 5.59724 11.0749 5.59724 11.1228 5.59724C11.2264 5.59724 11.338 5.6614 11.338 5.6614C11.641 5.74159 11.9998 5.90197 12.2948 6.06235C13.3314 6.56754 14.2084 7.24113 14.926 8.17133ZM35.9835 11.3468C35.6167 10.1681 35.1064 9.10153 34.3888 8.17133C33.6712 7.24113 32.7942 6.56754 31.7576 6.06235C31.4626 5.90197 31.1038 5.74159 30.8009 5.6614C30.8009 5.6614 30.6892 5.59724 30.5856 5.59724C30.5377 5.59724 30.4819 5.59724 30.4261 5.54111C30.3783 5.54111 30.3304 5.54111 30.3304 5.48498L29.565 5.3246C29.0069 5.22837 28.2893 5.18026 27.468 5.22837C26.2401 5.2845 25.1558 5.54913 24.199 5.99819C23.1624 6.51141 22.2854 7.23311 21.5678 8.09916C20.8502 9.02936 20.3399 10.0478 19.9731 11.2827C19.6223 12.4535 19.4628 13.7846 19.4628 15.1158C19.4628 16.503 19.6223 17.7861 19.9811 18.9649C20.3479 20.1437 20.906 21.2102 21.5757 22.0923C22.094 22.7097 22.6521 23.2149 23.3299 23.68C23.6329 23.8885 24.2468 24.1933 24.2468 24.1933C24.2468 24.1933 24.2946 24.1933 24.2946 24.2414C24.3288 24.2414 24.3447 24.2575 24.3594 24.2724C24.3722 24.2854 24.3841 24.2975 24.4063 24.2975C24.9245 24.5541 25.4827 24.6984 26.1046 24.8107C27.8986 25.1635 29.4374 24.915 29.4374 24.915C30.2587 24.8107 31.0321 24.5541 31.7497 24.2414C32.8261 23.7281 33.6952 23.0145 34.4207 22.1404C35.1383 21.2743 35.6486 20.1918 36.0154 19.013C36.3662 17.8342 36.5177 16.5512 36.5177 15.1639C36.5177 13.7846 36.3184 12.5016 36.0074 11.3148L35.9835 11.3468ZM23.9677 12.4695C24.175 11.6676 24.4302 10.8898 24.789 10.2723C25.1478 9.66286 25.6102 9.14965 26.1205 8.79681C26.6388 8.43596 27.2527 8.23549 27.9145 8.23549C28.5843 8.23549 29.1504 8.37983 29.6686 8.74068C30.1789 9.09352 30.5856 9.54258 30.9444 10.1199C31.3032 10.7374 31.5583 11.403 31.7656 12.2209C31.9809 13.0389 32.0846 13.8648 32.0846 14.787V15.0917C32.0846 16.0139 31.9809 16.9361 31.8294 17.754C31.6221 18.58 31.367 19.2937 31.0082 19.9191C30.6494 20.5286 30.1869 20.9857 29.6686 21.3465C29.1584 21.7074 28.5524 21.8597 27.8747 21.8597C27.2049 21.8597 26.5989 21.6994 26.0807 21.3465C25.5624 20.9857 25.0999 20.5286 24.7411 19.9031C24.3744 19.2937 24.1192 18.58 23.9119 17.754C23.7126 16.9361 23.6568 16.0139 23.6568 15.0917C23.7126 14.2096 23.8162 13.2955 23.9757 12.4775L23.9677 12.4695ZM4.56073 12.4695C4.76006 11.6676 5.0152 10.8898 5.374 10.2723C5.7328 9.66286 6.19525 9.14965 6.71352 8.79681C7.22381 8.43596 7.82978 8.23549 8.50751 8.23549C9.17727 8.23549 9.74337 8.37983 10.2616 8.74068C10.764 9.09352 11.1786 9.54258 11.5374 10.1199C11.8962 10.7374 12.1513 11.403 12.3586 12.2209C12.5659 13.0389 12.6775 13.8648 12.6775 14.787L12.6616 15.0917C12.6616 16.0139 12.5659 16.9361 12.4065 17.754C12.2071 18.58 11.944 19.2937 11.5852 19.9191C11.2344 20.5286 10.7719 20.9857 10.2616 21.3465C9.75134 21.7074 9.12943 21.8597 8.46764 21.8597C7.78991 21.8597 7.17597 21.6994 6.6577 21.3465C6.14741 20.9857 5.68496 20.5286 5.32616 19.9031C5.00723 19.3979 4.76803 18.6842 4.55275 17.8182C4.34545 16.9922 4.28963 16.054 4.28963 15.1398C4.28963 14.2176 4.34545 13.2955 4.54478 12.4775L4.56073 12.4695Z" fill="white"/>
</svg>
