<svg width="67" height="67" viewBox="0 0 67 67" fill="none" xmlns="http://www.w3.org/2000/svg">
<path d="M54.1349 24.2917C54.3069 26.4584 55.7857 30.7917 60.3254 30.7917C61.3066 30.7917 62.1287 30.5893 62.8147 30.2501V66.0001H51.0397H35.0476H33.5H31.9524H15.9603H4.09521V30.4192C4.67205 30.6555 5.35374 30.7917 6.15871 30.7917C10.6984 30.7917 12.1772 26.4584 12.3492 24.2917H13.8968C14.0688 26.4584 15.5476 30.7917 20.0873 30.7917C24.627 30.7917 25.7619 26.4584 25.7619 24.2917H27.3095C27.4815 26.4584 28.9603 30.7917 33.5 30.7917C38.0397 30.7917 39.1746 26.4584 39.1746 24.2917H40.7222C40.8942 26.4584 42.373 30.7917 46.9127 30.7917C51.4524 30.7917 52.5873 26.4584 52.5873 24.2917H54.1349Z" fill="white"/>
<path d="M15.9602 36.2083V65.9999H31.9523V36.2083H15.9602Z" fill="#B6DCFE"/>
<path d="M51.0396 65.9999V36.2083H35.0475V65.9999H51.0396Z" fill="#B6DCFE"/>
<path d="M1 18.875H66V24.2917C66 25.99 65.3027 29.0197 62.8147 30.25C62.1287 30.5892 61.3066 30.7917 60.3254 30.7917C55.7857 30.7917 54.3069 26.4583 54.1349 24.2917H52.5873C52.5873 26.4583 51.4524 30.7917 46.9127 30.7917C42.373 30.7917 40.8942 26.4583 40.7222 24.2917H39.1746C39.1746 26.4583 38.0397 30.7917 33.5 30.7917C28.9603 30.7917 27.4815 26.4583 27.3095 24.2917H25.7619C25.7619 26.4583 24.627 30.7917 20.0873 30.7917C15.5476 30.7917 14.0688 26.4583 13.8968 24.2917H12.3492C12.1772 26.4583 10.6984 30.7917 6.15873 30.7917C5.35376 30.7917 4.67207 30.6554 4.09524 30.4192C1.41898 29.323 1 26.0741 1 24.2917V18.875Z" fill="#B6DCFE"/>
<path d="M6.15873 8.04175H60.8413L66 18.8751H1L6.15873 8.04175Z" fill="#DFF0FE"/>
<path d="M6.15869 8.04167H60.8412V2.08333L59.2936 1H7.70631L6.15869 2.08333V8.04167Z" fill="#B6DCFE"/>
<path d="M60.8413 8.04167H6.15873M60.8413 8.04167V2.08333L59.2937 1H7.70635L6.15873 2.08333V8.04167M60.8413 8.04167L66 18.875M6.15873 8.04167L1 18.875M66 18.875H1M66 18.875V24.2917C66 25.99 65.3027 29.0197 62.8147 30.25M1 18.875V24.2917C1 26.0741 1.41898 29.323 4.09524 30.4192M62.8147 30.25C62.1287 30.5892 61.3066 30.7917 60.3254 30.7917C55.7857 30.7917 54.3069 26.4583 54.1349 24.2917H52.5873C52.5873 26.4583 51.4524 30.7917 46.9127 30.7917C42.373 30.7917 40.8942 26.4583 40.7222 24.2917H39.1746C39.1746 26.4583 38.0397 30.7917 33.5 30.7917C28.9603 30.7917 27.4815 26.4583 27.3095 24.2917H25.7619C25.7619 26.4583 24.627 30.7917 20.0873 30.7917C15.5476 30.7917 14.0688 26.4583 13.8968 24.2917H12.3492C12.1772 26.4583 10.6984 30.7917 6.15873 30.7917C5.35376 30.7917 4.67207 30.6554 4.09524 30.4192M62.8147 30.25V66H51.0397M4.09524 30.4192V66H15.9603M15.9603 66V36.2083H31.9524M15.9603 66H31.9524M51.0397 66V36.2083H35.0476M51.0397 66H35.0476M31.9524 36.2083V66M31.9524 36.2083H32.7262H33.5M31.9524 66H33.5M35.0476 66V36.2083M35.0476 66H33.5M35.0476 36.2083H33.5M33.5 36.2083V66" stroke="#4788C7" stroke-width="2"/>
</svg>
