<svg width="67" height="67" viewBox="0 0 67 67" fill="none" xmlns="http://www.w3.org/2000/svg">
<path d="M42.8479 40.0471C39.8149 43.046 36.4763 46.1629 33.119 46C29.9409 45.8458 26.8906 42.8137 24.1521 40.0471V47.076L33.119 53.5642L42.8479 47.076V40.0471Z" fill="white"/>
<path d="M23.2867 18.4197C16.4696 19.7173 16.7306 27.6113 17.7132 31.3961C19.5262 34.4743 21.7157 37.5857 24.1521 40.0471C26.8906 42.8136 29.9409 45.8457 33.1191 45.9999C36.4763 46.1628 39.8149 43.0459 42.8479 40.0471C45.3335 37.5894 47.6138 34.4811 49.5308 31.3961C50.0748 14.9593 44.9342 12.6524 42.2959 13.5535C28.5306 21.6638 31.8081 16.7976 23.2867 18.4197Z" fill="white"/>
<path d="M24.1521 47.076L33.119 53.5643L42.8479 47.076C44.7288 47.2078 47.0682 47.5773 49.5308 48.2611C57.1721 50.3831 66 55.5321 66 66H39.674H27.8753H1C1 55.4204 10.0171 50.2739 17.7132 48.1943C20.0861 47.5531 22.3334 47.2035 24.1521 47.076Z" fill="#B6DCFE"/>
<path d="M27.8752 1.11786C40.985 0.252765 44.2625 4.36197 44.2625 6.5247C54.7504 4.36195 55.1873 16.4373 54.0947 22.7453C53.063 25.1279 51.4859 28.2499 49.5308 31.3962C50.0748 14.9594 44.9342 12.6525 42.2959 13.5536C28.5306 21.6639 31.808 16.7977 23.2866 18.4198C16.4695 19.7174 16.7305 27.6114 17.7131 31.3962C15.8479 28.2294 14.3813 25.0977 13.4544 22.7453C12.7989 15.8966 14.7654 1.98296 27.8752 1.11786Z" fill="#B6DCFE"/>
<path d="M17.7132 31.3962C15.848 28.2294 14.3813 25.0977 13.4545 22.7453C12.799 15.8966 14.7654 1.98296 27.8753 1.11786C40.9851 0.252765 44.2625 4.36197 44.2625 6.5247C54.7505 4.36195 55.1873 16.4373 54.0947 22.7453C53.0631 25.1279 51.4859 28.2499 49.5308 31.3962M17.7132 31.3962C16.7306 27.6114 16.4696 19.7174 23.2867 18.4198C31.8081 16.7977 28.5306 21.6639 42.2959 13.5536C44.9342 12.6525 50.0748 14.9594 49.5308 31.3962M17.7132 31.3962C19.5262 34.4744 21.7157 37.5857 24.1521 40.0471M49.5308 31.3962C47.6138 34.4811 45.3335 37.5895 42.8479 40.0471M42.8479 40.0471C39.8149 43.046 36.4763 46.1629 33.119 46C29.9409 45.8458 26.8906 42.8137 24.1521 40.0471M42.8479 40.0471V47.076M42.8479 47.076L33.119 53.5643M42.8479 47.076C44.7288 47.2078 47.0682 47.5773 49.5308 48.2611M24.1521 40.0471V47.076M24.1521 47.076L33.119 53.5643M24.1521 47.076C22.3334 47.2035 20.0861 47.5531 17.7132 48.1943M33.119 53.5643L42.8479 57.349L49.5308 48.2611M33.119 53.5643L23.2867 57.349L17.7132 48.1943M33.119 53.5643L27.8753 66M33.119 53.5643L39.674 66M49.5308 48.2611C57.1721 50.3831 66 55.5321 66 66H39.674M17.7132 48.1943C10.0171 50.2739 1 55.4204 1 66H27.8753M27.8753 66H39.674" stroke="#4788C7" stroke-width="2"/>
<path d="M27.8752 66L33.119 53.5642L39.6739 66H27.8752Z" fill="#4788C7"/>
</svg>
