<svg width="170" height="65" viewBox="0 0 170 65" fill="none" xmlns="http://www.w3.org/2000/svg">
<path d="M152.5 26C152.5 38.1158 144.219 47.5 134.5 47.5C124.781 47.5 116.5 38.1158 116.5 26C116.5 13.8842 124.781 4.5 134.5 4.5C144.219 4.5 152.5 13.8842 152.5 26Z" stroke="white" stroke-width="3"/>
<path d="M131.929 27.2936L135.597 22.9666L127.649 17.9185L131.929 27.2936Z" fill="#255FD0"/>
<path d="M131.793 28.3832L142.036 34.8886L136.521 22.8072M131.793 28.3832L126.278 16.3018L136.521 22.8072L131.793 28.3832ZM131.793 28.3832L136.521 22.8072L131.793 28.3832Z" stroke="white" stroke-width="2" stroke-linecap="square"/>
<path d="M146.702 36.4062V41.1147H146.432C146.389 41.1147 146.353 41.1059 146.323 41.0884C146.296 41.0709 146.268 41.0413 146.24 40.9997L143.931 37.4511C143.934 37.5059 143.937 37.5595 143.939 37.6121C143.941 37.6647 143.942 37.714 143.942 37.76V41.1147H143.468V36.4062H143.747C143.771 36.4062 143.791 36.4084 143.808 36.4128C143.825 36.415 143.84 36.4205 143.853 36.4292C143.866 36.4358 143.879 36.4468 143.892 36.4621C143.905 36.4753 143.918 36.4928 143.933 36.5147L146.243 40.06C146.239 40.003 146.235 39.9483 146.232 39.8957C146.23 39.8409 146.229 39.7894 146.229 39.7413V36.4062H146.702Z" fill="#255FD0"/>
<path d="M11.999 48.7903C9.95178 48.7903 8.24576 47.9032 6.88094 46.129C5.51613 44.3548 4.83372 41.9086 4.83372 38.7903V12.6613H0.966744C0.663452 12.6613 0.417027 12.5 0.227469 12.1774C0.0758231 11.8548 0 11.4247 0 10.8871C0 10.1882 0.170602 9.62366 0.511806 9.19355C0.890921 8.76344 1.38377 8.54839 1.99036 8.54839H4.89059L5.62986 0H9.09877V8.54839H17.7426C18.1975 8.54839 18.425 8.87097 18.425 9.51613C18.425 10.1613 18.2354 10.6452 17.8563 10.9677C17.4772 11.2903 16.8896 11.5054 16.0934 11.6129L9.09877 12.6613V39.1936C9.09877 41.0215 9.42102 42.4194 10.0655 43.3871C10.7479 44.3011 11.6578 44.7581 12.7951 44.7581C13.5913 44.7581 14.2926 44.5968 14.8992 44.2742C15.5058 43.9516 16.0934 43.414 16.6621 42.6613C17.1171 42.1237 17.4772 41.8548 17.7426 41.8548C18.0838 41.8548 18.3681 42.0161 18.5956 42.3387C18.8231 42.6075 18.9368 43.0108 18.9368 43.5484C18.9368 44.5699 18.3681 45.6183 17.2308 46.6936C15.8281 48.0914 14.0841 48.7903 11.999 48.7903Z" fill="white"/>
<path d="M34.9441 48.7903C32.2523 48.7903 30.0345 47.6882 28.2906 45.4839C26.5467 43.2258 25.6747 40.1613 25.6747 36.2903V12.1774H22.8313C22.2247 12.1774 21.9215 11.6398 21.9215 10.5645C21.9215 9.81181 22.0921 9.27418 22.4333 8.95159C22.8124 8.57525 23.3052 8.38708 23.9118 8.38708H29.9397V35.8064C29.9397 38.4409 30.4705 40.5645 31.532 42.1774C32.6315 43.7903 34.1858 44.5968 36.1951 44.5968C37.6737 44.5968 39.1523 44.0054 40.6308 42.8226C42.1473 41.6398 43.531 40.0538 44.7821 38.0645V12.1774H41.9388C41.3322 12.1774 41.0289 11.6398 41.0289 10.5645C41.0289 9.81181 41.1995 9.27418 41.5407 8.95159C41.9198 8.57525 42.4126 8.38708 43.0192 8.38708H49.0472V44.0323L51.3219 44.9194C51.8526 45.1344 52.2317 45.4032 52.4592 45.7258C52.7246 45.9946 52.8573 46.371 52.8573 46.8548C52.8573 47.5 52.6298 47.8226 52.1749 47.8226H45.0096V42.3387H44.839C41.6165 46.6398 38.3182 48.7903 34.9441 48.7903Z" fill="white"/>
<path d="M58.0708 47.8226C57.4643 47.8226 57.161 47.2849 57.161 46.2097C57.161 45.5108 57.3316 44.9731 57.6728 44.5968C58.0519 44.2204 58.5447 44.0323 59.1513 44.0323H60.9142V12.1774H58.0708C57.4643 12.1774 57.161 11.6398 57.161 10.5645C57.161 9.81184 57.3316 9.27421 57.6728 8.95162C58.0519 8.57528 58.5447 8.38711 59.1513 8.38711H64.9518V16.371H65.1224C66.563 13.8979 68.1553 11.828 69.8993 10.1613C71.6432 8.44087 73.2355 7.58066 74.6761 7.58066C75.4722 7.58066 76.0788 7.87636 76.4959 8.46775C76.9129 9.00539 77.1214 9.75808 77.1214 10.7258C77.1214 11.2634 77.0456 11.8011 76.8939 12.3387C76.7802 12.8226 76.6096 13.2258 76.3821 13.5484C72.4014 13.5484 68.6671 15.9409 65.1793 20.7258V44.0323L67.9089 44.9194C68.4397 45.0806 68.8188 45.3226 69.0462 45.6452C69.3116 45.914 69.4443 46.3172 69.4443 46.8548C69.4443 47.5 69.2168 47.8226 68.7619 47.8226H58.0708Z" fill="white"/>
<path d="M81.677 65C81.0704 65 80.7671 64.4624 80.7671 63.3871C80.7671 62.6882 80.9377 62.1505 81.2789 61.7742C81.658 61.3978 82.1509 61.2097 82.7575 61.2097H84.5204V12.1774H81.677C81.0704 12.1774 80.7671 11.6398 80.7671 10.5645C80.7671 9.81184 80.9377 9.27421 81.2789 8.95162C81.658 8.57528 82.1509 8.38711 82.7575 8.38711H88.6148V13.7097H88.7854C89.9228 11.7204 91.2686 10.2151 92.823 9.19356C94.4153 8.11829 96.1402 7.58066 97.9979 7.58066C101.6 7.58066 104.519 9.35485 106.755 12.9032C109.03 16.3978 110.168 21.586 110.168 28.4677C110.168 35.0806 108.954 40.1344 106.528 43.629C104.102 47.0699 100.841 48.7903 96.7468 48.7903C95.5337 48.7903 94.1878 48.5215 92.7093 47.9839C91.2686 47.5 89.9607 46.828 88.7854 45.9677V61.2097L91.515 62.0968C92.5007 62.4194 92.9936 63.0645 92.9936 64.0323C92.9936 64.6774 92.7851 65 92.368 65H81.677ZM96.0644 44.8387C99.3627 44.8387 101.808 43.4409 103.4 40.6452C104.993 37.7957 105.789 33.7634 105.789 28.5484C105.789 22.6344 104.993 18.3333 103.4 15.6452C101.808 12.9032 99.666 11.5323 96.9743 11.5323C95.5337 11.5323 94.1689 11.9892 92.8799 12.9032C91.6288 13.8172 90.6241 15.0538 89.8659 16.6129C89.1077 18.1183 88.7285 19.7849 88.7285 21.6129V41.7742C89.6763 42.6344 90.8516 43.3602 92.2543 43.9516C93.657 44.543 94.9271 44.8387 96.0644 44.8387Z" fill="white"/>
<path d="M158.627 57.2581C158.02 57.2581 157.717 56.7205 157.717 55.6452C157.717 54.9463 157.887 54.4087 158.228 54.0323C158.608 53.656 159.1 53.4678 159.707 53.4678H161.47V3.79038H158.627C158.02 3.79038 157.717 3.25274 157.717 2.17748C157.717 1.42479 157.887 0.887159 158.228 0.56458C158.608 0.188234 159.1 6.10352e-05 159.707 6.10352e-05H165.735V53.4678L168.465 54.3549C168.995 54.5162 169.374 54.7581 169.602 55.0807C169.867 55.3495 170 55.7528 170 56.2904C170 56.9355 169.773 57.2581 169.318 57.2581H158.627Z" fill="white"/>
</svg>
