<svg width="170" height="64" viewBox="0 0 170 64" fill="none" xmlns="http://www.w3.org/2000/svg">
<path fill-rule="evenodd" clip-rule="evenodd" d="M168.874 24.6571C168.113 22.226 167.053 20.0266 165.563 18.1082C164.074 16.1899 162.253 14.8007 160.101 13.7588C159.488 13.4281 158.743 13.0973 158.114 12.9319C158.114 12.9319 157.882 12.7997 157.667 12.7997C157.568 12.7997 157.452 12.7997 157.336 12.6839C157.253 12.6839 157.137 12.6839 157.137 12.5681L155.565 12.2374C154.406 12.0389 152.916 11.9397 151.194 12.0389C148.645 12.1547 146.394 12.7004 144.407 13.6265C142.255 14.6849 140.434 16.1733 138.944 17.9594C137.454 19.8777 136.395 21.978 135.633 24.5248C134.905 26.9392 134.574 29.6845 134.574 32.4297C134.574 35.2907 134.905 37.9367 135.65 40.3677C136.411 42.7987 137.587 44.9982 138.961 46.8174C140.037 48.0908 141.196 49.1326 142.603 50.0918C143.232 50.5218 143.761 50.836 144.424 51.1502H144.506C144.506 51.1502 144.606 51.1502 144.606 51.2494C144.677 51.2494 144.71 51.2827 144.74 51.3135C144.767 51.3403 144.791 51.3652 144.838 51.3652C145.914 51.8944 147.089 52.1921 148.364 52.4236C152.088 53.1512 155.283 52.6386 155.283 52.6386C156.988 52.4236 158.594 51.8944 160.084 51.2494C162.319 50.191 164.123 48.7192 165.63 46.9166C167.12 45.1305 168.179 42.898 168.941 40.467C169.669 38.0359 170 35.3899 170 32.5289C170 29.6845 169.57 27.0385 168.924 24.5909L168.874 24.6571ZM143.927 26.9725C144.357 25.3188 144.887 23.7146 145.632 22.4412C146.377 21.1844 147.337 20.126 148.397 19.3983C149.473 18.6542 150.747 18.2407 152.121 18.2407C153.512 18.2407 154.687 18.5384 155.763 19.2826C156.823 20.0102 157.667 20.9363 158.412 22.127C159.157 23.4004 159.703 24.773 160.117 26.4599C160.564 28.1467 160.779 29.85 160.779 31.7518V32.3803C160.779 34.2821 160.564 36.1839 160.25 37.8707C159.819 39.5741 159.289 41.0459 158.544 42.3358C157.8 43.5927 156.839 44.5353 155.763 45.2795C154.704 46.0237 153.446 46.3379 152.039 46.3379C150.648 46.3379 149.39 46.0071 148.314 45.2795C147.238 44.5353 146.278 43.5927 145.533 42.3028C144.771 41.0459 144.242 39.5741 143.811 37.8707C143.397 36.1839 143.281 34.2821 143.281 32.3803C143.397 30.5611 143.613 28.6759 143.944 26.989L143.927 26.9725ZM120.569 53.0024L116.43 57.7487L116 58.1787L116.43 63.9999H122.82L129.541 56.4919V32.6116L129.343 30.7925L120.569 35.3238V53.0024Z" fill="white"/>
<path fill-rule="evenodd" clip-rule="evenodd" d="M66.6959 10.8613L62.5476 6.2485L62 5.85593L62.4314 0L68.8199 0.0981445L75.6896 7.52438V31.6842L75.4905 33.0255L66.6959 28.4454V10.8613ZM125.57 17.3551C127.063 19.2525 128.125 21.4281 128.888 23.8326L128.921 23.7672C129.668 26.188 130 28.8052 130 31.6187C130 34.4485 129.668 37.0656 128.938 39.4702C128.175 41.8747 127.113 44.0829 125.619 45.8495C124.126 47.6325 122.301 49.0883 120.061 50.1351C118.567 50.7731 116.958 51.2965 115.248 51.5091C115.248 51.5091 112.046 52.0162 108.312 51.2965C107.035 51.0675 105.857 50.7731 104.795 50.2496C104.734 50.2496 104.705 50.2188 104.677 50.1891C104.652 50.1616 104.627 50.1351 104.579 50.1351C104.579 50.037 104.463 50.037 104.463 50.037H104.38C103.716 49.7262 103.185 49.4154 102.554 48.9901C101.161 48.0414 99.9824 47.0109 98.9039 45.7514C97.5266 43.9521 96.3485 41.7766 95.5852 39.372C94.8551 36.9675 94.5232 34.3503 94.5232 31.5205C94.5232 28.8052 94.8385 26.0899 95.5686 23.7017C96.3319 21.1827 97.3939 19.1053 98.8873 17.2079C100.381 15.4413 102.206 13.9691 104.363 12.9223C106.354 12.0063 108.611 11.4665 111.166 11.352C112.892 11.2538 114.386 11.352 115.547 11.5483L117.123 11.8754C117.123 11.9899 117.24 11.9899 117.323 11.9899C117.455 12.1044 117.555 12.1044 117.654 12.1044C117.87 12.1044 118.102 12.2353 118.102 12.2353C118.733 12.3988 119.48 12.726 120.094 13.0531C122.251 14.0836 124.076 15.4577 125.57 17.3551ZM105.691 21.6407C104.944 22.9002 104.413 24.4869 103.998 26.1226L104.015 26.139C103.589 27.7863 103.47 29.6249 103.355 31.4029L103.351 31.4716C103.351 33.3527 103.45 35.2338 103.882 36.9023C104.313 38.5871 104.844 40.0429 105.591 41.2861C106.338 42.562 107.3 43.4944 108.362 44.2305C109.441 44.9502 110.718 45.2773 112.129 45.2773C113.506 45.2773 114.8 44.9666 115.862 44.2305C116.924 43.4944 117.887 42.562 118.617 41.3188C119.364 40.0429 119.911 38.5871 120.326 36.9023C120.658 35.2338 120.89 33.3527 120.89 31.4716V30.85C120.89 28.9689 120.658 27.284 120.226 25.6156C119.795 23.9471 119.264 22.5894 118.517 21.3299C117.771 20.1521 116.908 19.2361 115.862 18.5164C114.784 17.7803 113.606 17.4858 112.212 17.4858C110.801 17.4858 109.54 17.8948 108.478 18.6309C107.4 19.3506 106.437 20.3975 105.691 21.6407ZM80.4685 11.5156H89.429V52.0001H80.4685V11.5156Z" fill="white"/>
<path fill-rule="evenodd" clip-rule="evenodd" d="M84.8743 2C82.5969 2 80.7486 3.86813 80.7486 6.16994C80.7486 8.5885 82.5969 10.44 84.8743 10.3399C87.1517 10.3399 89 8.47174 89 6.16994C89 3.86813 87.1517 2 84.8743 2ZM30.8934 18.9965C32.3786 20.9314 33.4348 23.1497 34.194 25.6016L34.227 25.5349C34.9696 28.0034 35.2997 30.6721 35.2997 33.541C35.2997 36.4265 34.9696 39.0952 34.2435 41.5471C33.4843 43.9989 32.4282 46.2507 30.9429 48.052C29.4576 49.8701 27.6423 51.3546 25.4144 52.422C23.9292 53.0725 22.3284 53.6063 20.6286 53.8231C20.6286 53.8231 17.4435 54.3402 13.7304 53.6063C12.4597 53.3728 11.288 53.0725 10.2153 52.5388C10.1748 52.5388 10.1509 52.5388 10.13 52.5308C10.0997 52.5193 10.0758 52.4911 10.0172 52.422C10.0172 52.322 9.90173 52.322 9.90173 52.322H9.81921C9.1591 52.0051 8.631 51.6881 8.00389 51.2545C6.61765 50.2871 5.44595 49.2363 4.37326 47.952C2.888 46.1172 1.83182 43.9989 1.07269 41.447C0.330057 38.9951 0 36.3264 0 33.4409C0 30.6721 0.330058 27.9033 1.05618 25.4681C1.81532 22.8995 2.8715 20.7812 4.35676 18.8464C5.84202 17.045 7.65733 15.5439 9.80271 14.4764C11.7831 13.5424 14.0274 12.992 16.5689 12.8752C18.2852 12.7751 19.7704 12.8752 20.9256 13.0753L22.4934 13.4089C22.4934 13.5257 22.6089 13.5257 22.6915 13.5257C22.8235 13.6425 22.9225 13.6425 23.0215 13.6425C23.236 13.6425 23.4671 13.7759 23.4671 13.7759C24.0942 13.9427 24.8368 14.2763 25.4474 14.6098C27.5928 15.6607 29.4081 17.0617 30.8934 18.9965ZM74.4775 25.6016C73.7183 23.1497 72.6622 20.9314 71.1769 18.9965C69.6916 17.0617 67.8763 15.6607 65.7309 14.6098C65.1203 14.2763 64.3777 13.9427 63.7506 13.7759C63.7506 13.7759 63.5196 13.6425 63.305 13.6425C63.206 13.6425 63.0905 13.6425 62.975 13.5257C62.8759 13.5257 62.7769 13.5257 62.7769 13.4089L61.1927 13.0753C60.0375 12.8752 58.5522 12.7751 56.8524 12.8752C54.311 12.992 52.0666 13.5424 50.0862 14.4764C47.9408 15.5439 46.1255 17.045 44.6403 18.8464C43.155 20.7812 42.0988 22.8995 41.3397 25.4681C40.6136 27.9033 40.2835 30.6721 40.2835 33.4409C40.2835 36.3264 40.6136 38.9951 41.3562 41.447C42.1153 43.8989 43.2705 46.1172 44.6568 47.952C45.7295 49.2363 46.8847 50.2871 48.2874 51.2545C48.9145 51.6881 50.1852 52.322 50.1852 52.322C50.1852 52.322 50.2843 52.322 50.2843 52.422C50.355 52.422 50.3878 52.4556 50.4183 52.4867C50.4447 52.5136 50.4693 52.5388 50.5153 52.5388C51.588 53.0725 52.7432 53.3728 54.0304 53.6063C57.7435 54.3402 60.9286 53.8231 60.9286 53.8231C62.6284 53.6063 64.2292 53.0725 65.7144 52.422C67.9423 51.3546 69.7411 49.8701 71.2429 48.052C72.7282 46.2507 73.7843 43.9989 74.5435 41.5471C75.2696 39.0952 75.5832 36.4265 75.5832 33.541C75.5832 30.6721 75.1706 28.0034 74.527 25.5349L74.4775 25.6016ZM49.6076 27.9366C50.0367 26.2687 50.5648 24.6508 51.3074 23.3665C52.0501 22.0988 53.0072 21.0313 54.0634 20.2974C55.1361 19.5469 56.4068 19.1299 57.7766 19.1299C59.1628 19.1299 60.3345 19.4301 61.4072 20.1807C62.4634 20.9146 63.305 21.8486 64.0476 23.0496C64.7903 24.3339 65.3184 25.7183 65.7474 27.4196C66.193 29.1209 66.4076 30.8389 66.4076 32.757V33.3908C66.4076 35.309 66.193 37.2271 65.8795 38.9284C65.4504 40.6464 64.9223 42.1309 64.1797 43.4319C63.437 44.6995 62.4799 45.6502 61.4072 46.4008C60.351 47.1514 59.0968 47.4683 57.694 47.4683C56.3078 47.4683 55.0536 47.1347 53.9809 46.4008C52.9082 45.6502 51.951 44.6995 51.2084 43.3985C50.4493 42.1309 49.9212 40.6464 49.4921 38.9284C49.0795 37.2271 48.964 35.309 48.964 33.3908C49.0795 31.5561 49.2941 29.6546 49.6241 27.9533L49.6076 27.9366ZM9.43964 27.9366C9.85221 26.2687 10.3803 24.6508 11.1229 23.3665C11.8656 22.0988 12.8227 21.0313 13.8954 20.2974C14.9516 19.5469 16.2058 19.1299 17.6086 19.1299C18.9948 19.1299 20.1665 19.4301 21.2392 20.1807C22.2789 20.9146 23.137 21.8486 23.8797 23.0496C24.6223 24.3339 25.1504 25.7183 25.5794 27.4196C26.0085 29.1209 26.2396 30.8389 26.2396 32.757L26.2066 33.3908C26.2066 35.309 26.0085 37.2271 25.6785 38.9284C25.2659 40.6464 24.7213 42.1309 23.9787 43.4319C23.2525 44.6995 22.2954 45.6502 21.2392 46.4008C20.183 47.1514 18.8958 47.4683 17.526 47.4683C16.1233 47.4683 14.8526 47.1347 13.7799 46.4008C12.7237 45.6502 11.7665 44.6995 11.0239 43.3985C10.3638 42.3477 9.86871 40.8632 9.42313 39.0618C8.99406 37.3439 8.87854 35.3924 8.87854 33.4909C8.87854 31.5728 8.99406 29.6546 9.40663 27.9533L9.43964 27.9366Z" fill="white"/>
</svg>
