<svg width="82" height="30" viewBox="0 0 82 30" fill="none" xmlns="http://www.w3.org/2000/svg">
<path d="M72.3498 11.3302C72.3498 16.9143 68.696 21.3302 64.3028 21.3302C59.9097 21.3302 56.2558 16.9143 56.2558 11.3302C56.2558 5.74614 59.9097 1.33023 64.3028 1.33023C68.696 1.33023 72.3498 5.74614 72.3498 11.3302Z" stroke="white" stroke-width="2"/>
<path d="M63.1162 11.9557L64.8094 9.86528L61.1406 7.42654L63.1162 11.9557Z" fill="#255FD0"/>
<path d="M63.0536 12.4818L67.7814 15.6245L65.2357 9.78806M63.0536 12.4818L60.5079 6.64536L65.2357 9.78806L63.0536 12.4818ZM63.0536 12.4818L65.2357 9.78806L63.0536 12.4818Z" stroke="white" stroke-linecap="square"/>
<path d="M69.9349 16.3572V18.6318H69.8102C69.7906 18.6318 69.7738 18.6276 69.7601 18.6191C69.7473 18.6107 69.7344 18.5963 69.7215 18.5762L68.6556 16.862C68.6573 16.8885 68.6586 16.9143 68.6594 16.9398C68.6603 16.9651 68.6608 16.989 68.6608 17.0112V18.6318H68.4421V16.3572H68.5708C68.5819 16.3572 68.5913 16.3582 68.599 16.3605C68.6067 16.3615 68.6136 16.3641 68.6196 16.3683C68.6256 16.3716 68.6316 16.3768 68.6376 16.3842C68.6436 16.3906 68.65 16.399 68.6569 16.4096L69.7228 18.1223C69.7211 18.0948 69.7193 18.0683 69.7176 18.0429C69.7168 18.0165 69.7164 17.9916 69.7164 17.9683V16.3572H69.9349Z" fill="#255FD0"/>
<path d="M5.78775 21.849C4.80027 21.849 3.97736 21.4518 3.31905 20.6573C2.66072 19.8628 2.33156 18.7673 2.33156 17.3709V5.66992H0.466312C0.320018 5.66992 0.201155 5.59769 0.109721 5.45323C0.0365735 5.30878 0 5.11617 0 4.87541C0 4.56242 0.0822904 4.30962 0.246871 4.11701C0.429738 3.9244 0.667466 3.8281 0.960058 3.8281H2.35899L2.71558 0H4.38882V3.8281H8.5582C8.77763 3.8281 8.88736 3.97256 8.88736 4.26147C8.88736 4.55038 8.79592 4.76707 8.61305 4.91152C8.43019 5.05598 8.14674 5.15228 7.76272 5.20043L4.38882 5.66992V17.5514C4.38882 18.37 4.54426 18.996 4.85513 19.4294C5.18429 19.8387 5.62317 20.0433 6.17178 20.0433C6.5558 20.0433 6.8941 19.9711 7.18669 19.8267C7.47928 19.6822 7.76272 19.4414 8.03702 19.1043C8.25647 18.8636 8.43019 18.7432 8.5582 18.7432C8.72278 18.7432 8.85993 18.8154 8.96965 18.9599C9.07936 19.0803 9.13423 19.2609 9.13423 19.5017C9.13423 19.9591 8.85993 20.4286 8.31132 20.9101C7.63472 21.5361 6.79353 21.849 5.78775 21.849Z" fill="white"/>
<path d="M16.8554 21.849C15.557 21.849 14.4872 21.3554 13.6461 20.3683C12.8049 19.3572 12.3843 17.9849 12.3843 16.2513V5.45323H11.0128C10.7202 5.45323 10.5739 5.21247 10.5739 4.73095C10.5739 4.39388 10.6562 4.15311 10.8208 4.00866C11.0037 3.84013 11.2414 3.75586 11.534 3.75586H14.4415V16.0347C14.4415 17.2144 14.6976 18.1654 15.2096 18.8877C15.7399 19.61 16.4896 19.9711 17.4589 19.9711C18.1721 19.9711 18.8852 19.7062 19.5984 19.1765C20.3299 18.6469 20.9974 17.9367 21.6008 17.0459V5.45323H20.2293C19.9367 5.45323 19.7904 5.21247 19.7904 4.73095C19.7904 4.39388 19.8727 4.15311 20.0373 4.00866C20.2202 3.84013 20.4579 3.75586 20.7505 3.75586H23.6581V19.7183L24.7552 20.1155C25.0113 20.2119 25.1941 20.3322 25.3039 20.4767C25.4318 20.5971 25.4959 20.7657 25.4959 20.9823C25.4959 21.2712 25.3862 21.4157 25.1667 21.4157H21.7106V18.9599H21.6283C20.0739 20.886 18.4829 21.849 16.8554 21.849Z" fill="white"/>
<path d="M28.0106 21.4157C27.7181 21.4157 27.5717 21.1749 27.5717 20.6935C27.5717 20.3805 27.654 20.1397 27.8186 19.9711C28.0015 19.8026 28.2393 19.7183 28.5318 19.7183H29.3821V5.45324H28.0106C27.7181 5.45324 27.5717 5.21249 27.5717 4.73097C27.5717 4.3939 27.654 4.15313 27.8186 4.00868C28.0015 3.84014 28.2393 3.75588 28.5318 3.75588H31.3297V7.33118H31.412C32.1069 6.22368 32.8749 5.29676 33.7161 4.55039C34.5573 3.77996 35.3253 3.39474 36.0202 3.39474C36.4043 3.39474 36.6968 3.52716 36.898 3.792C37.0992 4.03276 37.1998 4.36982 37.1998 4.80319C37.1998 5.04396 37.1631 5.28471 37.09 5.52548C37.0351 5.74216 36.9528 5.92272 36.8432 6.06719C34.923 6.06719 33.1218 7.13857 31.4394 9.28135V19.7183L32.756 20.1156C33.012 20.1878 33.1949 20.2961 33.3047 20.4406C33.4326 20.561 33.4966 20.7416 33.4966 20.9823C33.4966 21.2712 33.3869 21.4157 33.1675 21.4157H28.0106Z" fill="white"/>
<path d="M39.3972 29.108C39.1046 29.108 38.9583 28.8672 38.9583 28.3857C38.9583 28.0727 39.0406 27.832 39.2052 27.6635C39.388 27.4949 39.6258 27.4107 39.9183 27.4107H40.7687V5.45324H39.3972C39.1046 5.45324 38.9583 5.21249 38.9583 4.73097C38.9583 4.3939 39.0406 4.15313 39.2052 4.00868C39.388 3.84014 39.6258 3.75588 39.9183 3.75588H42.7437V6.13941H42.8259C43.3745 5.2486 44.0237 4.57447 44.7734 4.11702C45.5415 3.6355 46.3736 3.39474 47.2696 3.39474C49.0068 3.39474 50.415 4.18924 51.4938 5.77827C52.591 7.34321 53.1396 9.66656 53.1396 12.7483C53.1396 15.7097 52.5545 17.9728 51.3841 19.5378C50.2138 21.0786 48.6411 21.849 46.6661 21.849C46.081 21.849 45.4317 21.7287 44.7186 21.4879C44.0237 21.2712 43.3928 20.9702 42.8259 20.585V27.4107L44.1425 27.8079C44.618 27.9523 44.8557 28.2412 44.8557 28.6747C44.8557 28.9636 44.7551 29.108 44.5541 29.108H39.3972ZM46.337 20.0795C47.928 20.0795 49.1074 19.4535 49.8755 18.2016C50.6435 16.9255 51.0276 15.1198 51.0276 12.7845C51.0276 10.136 50.6435 8.20996 49.8755 7.00616C49.1074 5.77827 48.0742 5.16433 46.7759 5.16433C46.081 5.16433 45.4227 5.36898 44.8009 5.77827C44.1974 6.18757 43.7128 6.74131 43.3471 7.43952C42.9814 8.11366 42.7985 8.86001 42.7985 9.6786V18.7071C43.2557 19.0923 43.8225 19.4173 44.4991 19.6822C45.1757 19.947 45.7883 20.0795 46.337 20.0795Z" fill="white"/>
<path d="M76.514 25.6411C76.2214 25.6411 76.0751 25.4003 76.0751 24.9188C76.0751 24.6058 76.1574 24.365 76.322 24.1964C76.5049 24.028 76.7426 23.9437 77.0352 23.9437H77.8855V1.69739H76.514C76.2214 1.69739 76.0751 1.45663 76.0751 0.975112C76.0751 0.638048 76.1574 0.397286 76.322 0.252831C76.5049 0.0842972 76.7426 3.05176e-05 77.0352 3.05176e-05H79.9428V23.9437L81.2594 24.341C81.5154 24.4132 81.6982 24.5216 81.808 24.666C81.936 24.7863 82 24.9669 82 25.2077C82 25.4966 81.8903 25.6411 81.6709 25.6411H76.514Z" fill="white"/>
</svg>
